<?xml version="1.0" encoding="utf-8"?>
<!-- Generator: Adobe Illustrator 25.2.1, SVG Export Plug-In . SVG Version: 6.00 Build 0)  -->
<svg version="1.1" id="Layer_1" xmlns="http://www.w3.org/2000/svg" xmlns:xlink="http://www.w3.org/1999/xlink" x="0px" y="0px"
	 viewBox="0 0 748.6 124.9" style="enable-background:new 0 0 748.6 124.9;" xml:space="preserve">
<style type="text/css">
	.st0{fill:#D99B81;}
</style>
<path class="st0" d="M537.8,109.4c-4.5,0-8.9,0-13.4,0c-1.8,0-3.9,0-4.3-2c-0.4-1.9,1-3.5,2.9-4.1c4.6-1.5,6.8-5,8.1-9.3
	c3.7-12.1,6-24.4,7-37c0.3-3.3-1.3-5-4.3-6c-1.4-0.5-3.6-0.7-3.4-2.8c0.2-1.8,1.8-2.5,3.7-3c6.4-1.7,13-2.8,19.3-5.1
	c1.9-0.7,4.1-1.4,5.4,0.4c1.1,1.8,0.7,4.1-0.4,6.1c-0.2,0.4-0.7,0.8-0.6,1.1c0.3,1.2-1.2,2.7-0.2,3.3c1.4,0.9,2.3-0.9,3.1-1.8
	c4.8-5.3,10.9-8,17.9-9.2c6.6-1.1,12.6-0.3,18.2,3.4c2.4,1.6,3.9,4.2,5.4,6.6c0.7,1.1,0.9,1.6,2.2,0.3c9.3-9.1,20.1-13,33-9.3
	c7,2,12.5,12.2,11,19.8c-1.2,6-1.7,12.1-3.3,18c-1.4,5.5-2.5,10.9-2.6,16.6c0,3,0.9,5.2,3.3,6.9c0.5,0.4,1.1,0.8,1.5,1.2
	c1,1,2.4,1.9,1.7,3.6c-0.7,1.6-2.2,2.4-3.9,2.5c-2.5,0.1-5,0-7.5,0c-6.9,0-13.7,0-20.6,0c-1.7,0-3.6-0.1-4.2-1.8
	c-0.7-1.9,0.9-3.3,2.5-3.9c8.8-3.6,9.3-11.8,10.8-19.4c1.2-5.8,3-11.5,3.8-17.4c0.3-2.7,0.5-5.4,0.1-8.1c-0.9-5.8-8.1-7.9-13.8-6.8
	c-6.8,1.3-11.2,5.7-13.7,12.1c-4,10.3-5.7,21-6.4,31.9c-0.2,3,0.5,5.6,2.9,7.5c1,0.8,2.1,1.8,1.5,3.3c-0.6,1.6-2,2.5-3.5,2.5
	c-8.7,0.1-17.4,0.1-26.1,0c-1.1,0-2.5-0.5-2.8-1.9c-0.3-1.2,0.4-2.5,1.5-3c7.8-3.8,9-11.3,10.1-18.6c1.1-7.2,2.5-14.4,3.6-21.6
	c1.3-8.8-4.7-14.3-13.4-12c-9,2.4-13.2,9.2-15.5,17.4c-2,7.1-2.8,14.5-4.3,21.7c-0.8,3.9-0.2,6.5,1.5,9.5c0.6,1,1.3,1.6,2.3,2.2
	c1.3,0.8,2.5,2,2,3.7c-0.5,1.9-2.1,2.7-4,2.7C547.3,109.4,542.5,109.4,537.8,109.4z"/>
<path class="st0" d="M424.1,109.4c-5,0-10,0-15,0c-1.5,0-3.1-0.4-3.6-2.1c-0.4-1.7,0.9-3,2.1-3.3c8.6-2.8,9.4-10.4,10.9-17.5
	c2.4-11.8,4.7-23.6,7-35.4c1.1-5.5,1.8-11,2.9-16.5c0.4-2.1,1.4-4.1,1.8-6.3c0.5-2.4,0-3.8-3.1-3.8c-10,0-17.7,3.8-22.4,12.8
	c-1.1,2.1-3.1,3.4-4.9,4.6c-1.4,0.9-3.3,0.4-4.8-0.9c-1.5-1.2-1.9-3-1.2-4.3c2.4-4.3,2.4-9.2,3.6-13.8c2-7.8,5.1-9.7,13-7.9
	c0.6,0.1,1.3,0.4,1.9,0.4c15.1,0.8,30.2,1.1,45.3,0.5c7.2-0.3,14.5-0.3,21.7-1.1c3.6-0.4,4.7,0.9,4.5,4.6
	c-0.3,6.1-1.6,12.1-2.6,18.1c-0.5,2.8-2.9,4.4-5.5,4.4c-2.3,0-4.1-1.6-4.9-4c-0.7-2.2-1.3-4.5-2.5-6.6c-2.8-4.9-12.2-8.6-17.2-6.6
	c-2.2,0.8-2,3-2.3,4.7c-0.9,4.2-0.9,8.6-2.2,12.7c-3.8,12.6-4.6,25.8-7.6,38.6c-1.1,4.7-2,9.5-2.6,14.3c-0.3,3,1.6,5.3,3.7,7.4
	c1.3,1.3,3.8,1.9,3,4.4c-0.8,2.7-3.2,2.8-5.5,2.8C433.1,109.4,428.6,109.4,424.1,109.4z"/>
<path class="st0" d="M154.3,99c-3.1,0.7-4.1,3.4-6.1,4.9c-4.5,3.3-9.4,5.3-14.9,6.3c-4.6,0.8-8.9,0.4-13.4-0.6
	c-3.5-0.8-6.1-2.9-8.1-5.5c-3.6-4.8-4.8-10.6-3.3-16.2c2.4-9.3,3.7-18.8,5.6-28.2c0.9-4.6-0.3-6.7-4.7-8.5c-1.5-0.6-3.2-1.2-3-3.3
	c0.1-1.8,1.7-2.1,3-2.4c7.1-1.9,14.3-3.9,21.4-5.7c2.6-0.7,4,1,3.5,4.2c-0.7,4.8-1.7,9.5-2.6,14.2c-1.3,7.4-2.4,14.8-4,22.1
	c-0.7,3.4-2.3,6.5-1.4,10.1c1.1,4.2,4.3,7.6,8.5,7.9c5.4,0.4,10.2-0.9,14.5-4.7c6.5-5.7,7.9-13.5,9.6-21.2c1.1-4.8,2.1-9.6,2.1-14.7
	c0-3.2-1-5.1-3.9-6.3c-1.5-0.6-3.3-1.2-3-3.2c0.3-2,2-2.7,3.7-3.1c6.7-1.5,13.4-3.1,19.9-5.3c3.2-1.1,4.5,0.2,4.1,3.8
	c-0.9,7.3-2.7,14.4-4.2,21.6c-1.8,9.1-4.1,18.2-4.3,27.6c-0.1,4,1,5.4,4.9,6.9c1.2,0.4,2.9,0.6,2.8,2.2c-0.1,1.6-1.4,2.6-3,3
	c-7,1.9-14.2,3.4-21.1,5.7c-2.4,0.8-4-0.6-3.8-3.1C153.5,104.8,153.9,102,154.3,99z"/>
<path class="st0" d="M249.7,109.4c-4.8,0-9.6-0.1-14.4,0c-1.6,0-3-0.2-3.5-1.7c-0.5-1.4,0.5-2.6,1.7-3.5c3.8-2.8,3.9-3.8,2.1-8.2
	c-1.9-4.6-5-8.5-7.3-12.8c-0.7-1.3-1.5-1.4-2.5-0.3c-3.8,4.3-8.1,8.3-11.1,13.3c-1.6,2.7-1,5.3,1.6,7.4c1.2,0.9,2.9,1.6,2,3.5
	c-0.8,1.7-2.4,2.4-4.3,2.4c-2,0-3.9,0-5.9,0c-5.7,0-11.3,0-17,0c-1.2,0-2.3-0.2-3.5-0.6c-2.2-0.8-1.8-2-0.5-3.3
	c2.2-2.3,5.1-3.6,7.6-5.4c4.9-3.5,9.5-7.3,13.7-11.6c4.2-4.4,8.7-8.4,12.9-12.8c1.2-1.2,1.3-1.7,0.3-3.1c-3.6-5.1-6.4-10.9-10-16.1
	c-2.8-4-5.5-7.6-10-9.6c-1.7-0.8-3.1-1.8-2.6-3.9c0.5-2.1,2.3-2.3,4.1-2.3c9.9,0,19.8,0,29.7,0c1.5,0,2.6,0.5,3.2,1.8
	c0.6,1.4-0.3,2.6-1.4,3.3c-5.3,3.8-3.5,5.4-1.7,9.8c1.5,3.6,3.5,6.9,5.3,10.3c1.1,2.1,2.6,3.1,4.3,0.7c3-4.1,7.1-7.1,9.7-11.5
	c2.4-4,2.1-5.9-1.5-8.6c-1.1-0.8-2.1-1.9-1.4-3.3c0.8-1.7,2.4-2.4,4.3-2.4c5.4,0,10.9,0,16.3,0c2.4,0,4.8,0.1,7.2,0
	c1.5-0.1,2.6,0.4,3.2,1.7c0.6,1.4-0.3,2.4-1.3,3.4c-2.5,2.6-6.3,3.2-8.8,5.9c-3.7,4-8.5,6.8-12.3,10.8c-3.4,3.6-6.5,7.7-10.8,10.6
	c-2.2,1.5-2.6,3.5-0.9,5.5c3.1,3.6,4.8,8.1,7.6,11.9c3.4,4.6,6.3,10,12.2,12.4c1.5,0.6,3.2,1.9,2.8,3.9c-0.4,2.2-2.4,2.6-4.3,2.6
	C259.7,109.4,254.7,109.4,249.7,109.4z"/>
<path class="st0" d="M51.1,16c4.6,0,9.2,0,13.7,0c1.7,0,3.6,0.3,3.9,2.1c0.3,1.8-1.3,2.6-2.9,3.2c-5.8,1.9-8,6.9-9,12.2
	c-2.5,12.8-3.9,25.9-6.9,38.6c-1.6,6.6-2.4,13.4-4.1,19.9c-1.5,6.1,0.6,9,7,8.8c12-0.3,22.6-3.7,30.3-13.8c1.8-2.4,4.3-5.2,8.2-5.1
	c3,0.1,4.8,2.2,3.7,5c-2.6,6.5-5.1,13.2-8.5,19.3c-1.9,3.6-6.3,4.8-10.2,4.3c-18.4-2.5-36.9-0.6-55.3-1.2c-1.3,0-2.6,0.2-3.8-0.5
	c-1-0.5-2.7-0.3-2.8-1.7c0-1.2,1.2-2.2,2.2-2.9c1.5-1.1,3.1-1.9,4.6-2.9c5.3-3.3,5.5-9.2,6.6-14.4c1.6-7.8,2-15.8,4.2-23.4
	c3-10.4,3.9-21.2,6.2-31.7c0.9-4.2,0.9-8.6-4.5-10.9c-2.7-1.1-2.4-2.4,0-4c1.2-0.8,2.5-1.1,4-1.1C42.1,16,46.6,16,51.1,16z"/>
<path class="st0" d="M490,109.4c-4.6,0-9.1,0-13.7,0c-1.6,0-2.8-0.4-3.4-1.9c-0.5-1.5,0.5-2.5,1.5-3.3c1.4-1.1,2.8-2.1,4.2-2.9
	c5.8-3.5,6-9.6,7.1-15.2c1.4-6.4,2-12.9,3.5-19.3c0.4-1.7,1-3.6,1.5-5.4c1.3-5.2,0.3-7.5-4.1-10.2c-1.4-0.8-3.7-1.2-3.3-3.4
	c0.4-1.9,2.4-2.7,4.2-3c6.7-1.1,13.1-3.3,19.6-5c3.3-0.8,4.4-0.1,4,3.3c-0.7,5.7-1.6,11.5-2.8,17.1c-2.3,10.8-4.7,21.6-6.2,32.6
	c-0.6,4.8,1.2,8.5,5.3,10.7c1.1,0.6,1.7,1.6,1.7,2.6c0,1.1-0.6,2.3-2,2.6c-1.3,0.3-2.4,0.7-3.8,0.7
	C498.9,109.4,494.4,109.4,490,109.4z"/>
<path class="st0" d="M348,48.5c-1.1-1.6-2.5-3.1-4.2-4.1c-10.2-5.8-20.8-6-31.6-2c-7.8,2.9-14,7.9-19.7,14.1
	c-5.6,6-7.9,13.3-10.4,20.6c-2.1,6.1-1,12.5,1.8,18.3c1.8,3.7,3.7,7.3,7.4,9.6c7.8,4.8,16.1,6.5,25.3,5.3c10.4-1.3,19.4-5,26.9-12.4
	c1.1-1.1,2.6-2.4,1.3-4.2c-1.2-1.8-3-1.4-4.6-0.6c-5.3,2.8-10.8,4.9-16.7,5.6c-6.7,0.8-13.3,0.3-18.2-5c-3.9-4.3-4.9-9.6-4.6-15.5
	c0.2-4,2-4.2,5.1-4.1c5.5,0.2,11.1,0.1,16.6,0.1c6.2,0,12.4,0.1,18.6,0c5.9-0.1,10.7-3.7,11.5-8.7C353.5,59.1,351.3,53.6,348,48.5z
	 M335.6,60.6c-0.5,2.7-4.7,5.6-8.6,5.7c-3.7,0.1-7.4,0-11.1,0c-3.6,0-7.2-0.1-10.7,0c-2.1,0.1-2.8-0.7-1.9-2.7
	c3.7-8.2,9.1-14.6,18.4-16.1C328.7,46.4,337.5,51.2,335.6,60.6z"/>
<path class="st0" d="M724.6,44c-9.6-5.9-19.9-5.3-30.1-1.8C686.4,45,679.6,50,674,56.7c-8.2,9.9-11.9,20.9-9.8,33.8
	c1.3,7.6,5.4,13.3,12.4,16.6c6.8,3.2,14,4.4,21.7,3.2c7.4-1.2,14.6-2.8,20.7-7.4c2.4-1.7,5.2-3,6.7-5.7c0.6-1.1,1.8-2.1,0.8-3.5
	c-1-1.3-2.2-1.6-3.7-0.8c-1.5,0.8-3.1,1.4-4.7,2.1c-5.8,2.3-11.7,4.4-18.1,4c-7.7-0.5-15.2-4.1-17.1-12.9c-0.6-3.1-1.1-6-0.5-9.2
	c0.4-2.1,1-2.8,3.1-2.8c6.2,0.1,12.4,0,18.6,0c6.2,0,12.4,0.1,18.6,0c6.4-0.1,10.7-3.3,11.4-8.7C735.2,56.5,732.5,48.8,724.6,44z
	 M717.1,60.6c-0.5,3.3-4,5.6-8.7,5.7c-3.6,0.1-7.2,0-10.7,0c-3.7,0-7.4-0.1-11.1,0c-2.1,0.1-2.6-0.9-1.8-2.6
	c3.9-8,9.1-14.5,18.5-16.3C711.8,45.8,718.5,52.2,717.1,60.6z"/>
</svg>
