<?xml version="1.0" encoding="utf-8"?>
<!-- Generator: Adobe Illustrator 25.2.1, SVG Export Plug-In . SVG Version: 6.00 Build 0)  -->
<svg version="1.1" id="Layer_1" xmlns="http://www.w3.org/2000/svg" xmlns:xlink="http://www.w3.org/1999/xlink" x="0px" y="0px"
	 viewBox="0 0 489.7 124.1" style="enable-background:new 0 0 489.7 124.1;" xml:space="preserve">
<style type="text/css">
	.st0{display:none;fill:url(#SVGID_1_);}
	.st1{display:none;fill:url(#SVGID_2_);}
	.st2{display:none;fill:url(#SVGID_3_);}
	.st3{display:none;fill:url(#SVGID_4_);}
	.st4{display:none;fill:url(#SVGID_5_);}
	.st5{display:none;fill:url(#SVGID_6_);}
	.st6{display:none;fill:url(#SVGID_7_);}
	.st7{fill:url(#SVGID_8_);}
	.st8{fill:url(#SVGID_9_);}
	.st9{fill:url(#SVGID_10_);}
	.st10{fill:url(#SVGID_11_);}
	.st11{fill:url(#SVGID_12_);}
	.st12{fill:url(#SVGID_13_);}
	.st13{fill:url(#SVGID_14_);}
	.st14{display:none;}
	.st15{display:inline;}
	.st16{fill:url(#SVGID_15_);}
	.st17{fill:url(#SVGID_16_);}
	.st18{fill:url(#SVGID_17_);}
	.st19{fill:url(#SVGID_18_);}
	.st20{fill:url(#SVGID_19_);}
	.st21{fill:url(#SVGID_20_);}
	.st22{fill:url(#SVGID_21_);}
</style>
<g>
	<g>
		
			<linearGradient id="SVGID_1_" gradientUnits="userSpaceOnUse" x1="27.1" y1="697.5739" x2="27.1" y2="632.9665" gradientTransform="matrix(1 0 0 1 0 -594)">
			<stop  offset="0" style="stop-color:#C29471"/>
			<stop  offset="0.5542" style="stop-color:#9D705B"/>
			<stop  offset="1" style="stop-color:#C29471"/>
		</linearGradient>
		<path class="st0" d="M1.2,39H18v48.5h35.1v14.1h-52V39H1.2z"/>
		
			<linearGradient id="SVGID_2_" gradientUnits="userSpaceOnUse" x1="89.65" y1="697.6" x2="89.65" y2="633" gradientTransform="matrix(1 0 0 1 0 -594)">
			<stop  offset="0" style="stop-color:#C29471"/>
			<stop  offset="0.5542" style="stop-color:#9D705B"/>
			<stop  offset="1" style="stop-color:#C29471"/>
		</linearGradient>
		<path class="st1" d="M58.8,75.1V39h16.9v35.7c0,9.2,4.5,14.8,14,14.8s14.1-5.6,14.1-14.8V39h16.7v36c0,19.5-10.9,28.6-30.9,28.6
			S58.8,94.5,58.8,75.1z"/>
		
			<linearGradient id="SVGID_3_" gradientUnits="userSpaceOnUse" x1="156.6" y1="697.5739" x2="156.6" y2="632.9665" gradientTransform="matrix(1 0 0 1 0 -594)">
			<stop  offset="0" style="stop-color:#C29471"/>
			<stop  offset="0.5542" style="stop-color:#9D705B"/>
			<stop  offset="1" style="stop-color:#C29471"/>
		</linearGradient>
		<path class="st2" d="M146.1,70.2v-0.9L124.4,39h18.2l13.2,19.2h1.6L170.6,39h18.2l-21.5,30.4v0.9l22,31.3h-18.4l-13.5-20h-1.6
			l-13.5,20h-18.4L146.1,70.2z"/>
		
			<linearGradient id="SVGID_4_" gradientUnits="userSpaceOnUse" x1="242.9" y1="697.5739" x2="242.9" y2="632.9665" gradientTransform="matrix(1 0 0 1 0 -594)">
			<stop  offset="0" style="stop-color:#C29471"/>
			<stop  offset="0.5542" style="stop-color:#9D705B"/>
			<stop  offset="1" style="stop-color:#C29471"/>
		</linearGradient>
		<path class="st3" d="M274.3,53h-23.1v48.5h-16.7V53h-23.1V39h63L274.3,53L274.3,53z"/>
		
			<linearGradient id="SVGID_5_" gradientUnits="userSpaceOnUse" x1="288.3" y1="697.5739" x2="288.3" y2="632.9665" gradientTransform="matrix(1 0 0 1 0 -594)">
			<stop  offset="0" style="stop-color:#C29471"/>
			<stop  offset="0.5542" style="stop-color:#9D705B"/>
			<stop  offset="1" style="stop-color:#C29471"/>
		</linearGradient>
		<path class="st4" d="M279.9,39h16.8v62.5h-16.8V39z"/>
		
			<linearGradient id="SVGID_6_" gradientUnits="userSpaceOnUse" x1="338.35" y1="697.5739" x2="338.35" y2="632.9665" gradientTransform="matrix(1 0 0 1 0 -594)">
			<stop  offset="0" style="stop-color:#C29471"/>
			<stop  offset="0.5542" style="stop-color:#9D705B"/>
			<stop  offset="1" style="stop-color:#C29471"/>
		</linearGradient>
		<path class="st5" d="M302.7,39H324l13.7,41.1h1.3L352.7,39h21.4v62.5H358V67.2h-1.4l-11.8,34.3h-12.9l-11.8-34.3h-1.4v34.3h-16.1
			L302.7,39L302.7,39z"/>
		
			<linearGradient id="SVGID_7_" gradientUnits="userSpaceOnUse" x1="406.95" y1="697.5739" x2="406.95" y2="632.9665" gradientTransform="matrix(1 0 0 1 0 -594)">
			<stop  offset="0" style="stop-color:#C29471"/>
			<stop  offset="0.5542" style="stop-color:#9D705B"/>
			<stop  offset="1" style="stop-color:#C29471"/>
		</linearGradient>
		<path class="st6" d="M380,39h53.9v13.6h-37.1v11.8h35.7V76h-35.7v11.8h37.1v13.6H380V39z"/>
		<g>
			<g>
				
					<linearGradient id="SVGID_8_" gradientUnits="userSpaceOnUse" x1="150.0706" y1="-156.8765" x2="9.3283" y2="86.8962" gradientTransform="matrix(1 0 0 -1 0 126)">
					<stop  offset="0" style="stop-color:#C29471"/>
					<stop  offset="0.5542" style="stop-color:#9D705B"/>
					<stop  offset="1" style="stop-color:#C29471"/>
				</linearGradient>
				<path class="st7" d="M15.4,100.3V35.6h13.3v64.8L15.4,100.3L15.4,100.3z M35.3,89.6l-5.4,10.7h37.9V89.6H35.3z M31.3,35.6v55.7
					l4.1-7.8V35.6H31.3z"/>
				
					<linearGradient id="SVGID_9_" gradientUnits="userSpaceOnUse" x1="210.8579" y1="-121.781" x2="70.1156" y2="121.9918" gradientTransform="matrix(1 0 0 -1 0 126)">
					<stop  offset="0" style="stop-color:#C29471"/>
					<stop  offset="0.5542" style="stop-color:#9D705B"/>
					<stop  offset="1" style="stop-color:#C29471"/>
				</linearGradient>
				<path class="st8" d="M104.1,90.8c3-0.5,5.7-2,8.2-4.3c3.4-3.4,5.1-7.6,5.1-12.5V35.6h13.3v38.3c0,7.4-2.7,13.8-8.1,19.2
					c-5.8,5.7-12.8,8.6-21.1,8.6s-15.3-2.9-21.1-8.6c-5.4-5.4-8.1-11.8-8.1-19.2V35.6h13.3v38.3c0,5,1.7,9.1,5.1,12.5
					c3,3,6.6,4.6,10.6,4.6c0.4,0,0.8,0,1.3,0c-3.5-0.3-6.7-1.8-9.4-4.5c-3.4-3.4-5.1-7.6-5.1-12.5V35.6h2.5v38.3
					c0,5,1.7,9.1,5.1,12.5C98.4,88.8,101.1,90.3,104.1,90.8z"/>
				
					<linearGradient id="SVGID_10_" gradientUnits="userSpaceOnUse" x1="257.0711" y1="-95.0998" x2="116.3288" y2="148.673" gradientTransform="matrix(1 0 0 -1 0 126)">
					<stop  offset="0" style="stop-color:#C29471"/>
					<stop  offset="0.5542" style="stop-color:#9D705B"/>
					<stop  offset="1" style="stop-color:#C29471"/>
				</linearGradient>
				<path class="st9" d="M168.6,53.5l12.9-17.9h15.4c-5.7,8-13.5,18.8-23.2,32.4c9.8,13.6,17.5,24.4,23.2,32.4h-15.4L166,78.7
					c-5.7,8-10.9,15.2-15.5,21.6h-15.4L158.3,68l-23.2-32.4h15.4c4.6,6.4,9.7,13.6,15.5,21.6l1.3-1.9c-5.2-7.3-9.9-13.9-14.1-19.8
					h2.7C159.7,41,164,47,168.6,53.5z M199.5,35.6h2.7c-5.7,8-13.5,18.8-23.2,32.4c9.8,13.6,17.5,24.4,23.2,32.4h-2.7
					c-5.7-8-13.4-18.8-23.2-32.4C186.1,54.4,193.8,43.6,199.5,35.6z"/>
				
					<linearGradient id="SVGID_11_" gradientUnits="userSpaceOnUse" x1="333.9086" y1="-50.7376" x2="193.1663" y2="193.0351" gradientTransform="matrix(1 0 0 -1 0 126)">
					<stop  offset="0" style="stop-color:#C29471"/>
					<stop  offset="0.5542" style="stop-color:#9D705B"/>
					<stop  offset="1" style="stop-color:#C29471"/>
				</linearGradient>
				<path class="st10" d="M267.5,46.2H265v54.1h-13.3V46.2h-25.4V35.6h64.2v10.6h-18.8v46.3l-4.1,7.8V46.2H267.5z"/>
				
					<linearGradient id="SVGID_12_" gradientUnits="userSpaceOnUse" x1="361.7177" y1="-34.682" x2="220.9754" y2="209.0908" gradientTransform="matrix(1 0 0 -1 0 126)">
					<stop  offset="0" style="stop-color:#C29471"/>
					<stop  offset="0.5542" style="stop-color:#9D705B"/>
					<stop  offset="1" style="stop-color:#C29471"/>
				</linearGradient>
				<path class="st11" d="M302.1,35.6v56.8l-4.1,7.8V35.6H302.1z M318.3,100.3H305V35.6h13.3V100.3z"/>
				
					<linearGradient id="SVGID_13_" gradientUnits="userSpaceOnUse" x1="405.3461" y1="-9.4932" x2="264.6038" y2="234.2796" gradientTransform="matrix(1 0 0 -1 0 126)">
					<stop  offset="0" style="stop-color:#C29471"/>
					<stop  offset="0.5542" style="stop-color:#9D705B"/>
					<stop  offset="1" style="stop-color:#C29471"/>
				</linearGradient>
				<path class="st12" d="M389.8,63l-23.4,35.3L349.5,73v19.3l-4.1,7.8V66.8l-2.5-3.8v37.3h-13.1V35.6h9.7L366.3,76l26.9-40.4h9.7
					v64.8h-13.1V63z"/>
				
					<linearGradient id="SVGID_14_" gradientUnits="userSpaceOnUse" x1="460.4613" y1="22.3868" x2="319.7191" y2="266.1595" gradientTransform="matrix(1 0 0 -1 0 126)">
					<stop  offset="0" style="stop-color:#C29471"/>
					<stop  offset="0.5542" style="stop-color:#9D705B"/>
					<stop  offset="1" style="stop-color:#C29471"/>
				</linearGradient>
				<path class="st13" d="M427.4,46.3h-2.8v54.1h-13.3V35.6h57.2v10.7h-36.9v16.4h36.9l-4.4,10.7h-32.5v9.3l-4.2,7.8L427.4,46.3
					L427.4,46.3z M431.1,89.6l-5.4,10.7h40.5l4.4-10.7H431.1z"/>
			</g>
		</g>
	</g>
</g>
<g class="st14">
	<g class="st15">
		
			<linearGradient id="SVGID_15_" gradientUnits="userSpaceOnUse" x1="47.95" y1="701.6374" x2="47.95" y2="637.03" gradientTransform="matrix(1 0 0 1 0 -594)">
			<stop  offset="0" style="stop-color:#DDAC83"/>
			<stop  offset="1" style="stop-color:#9F755C"/>
		</linearGradient>
		<path class="st16" d="M22,43h16.8v48.5h35.1v14.1H22V43z"/>
		
			<linearGradient id="SVGID_16_" gradientUnits="userSpaceOnUse" x1="110.35" y1="701.6" x2="110.35" y2="637" gradientTransform="matrix(1 0 0 1 0 -594)">
			<stop  offset="0" style="stop-color:#DDAC83"/>
			<stop  offset="1" style="stop-color:#9F755C"/>
		</linearGradient>
		<path class="st17" d="M79.5,79.1V43h16.9v35.7c0,9.2,4.5,14.8,14,14.8s14.1-5.6,14.1-14.8V43h16.7v36c0,19.5-10.9,28.6-30.9,28.6
			S79.5,98.6,79.5,79.1z"/>
		
			<linearGradient id="SVGID_17_" gradientUnits="userSpaceOnUse" x1="177.3" y1="701.6374" x2="177.3" y2="637.03" gradientTransform="matrix(1 0 0 1 0 -594)">
			<stop  offset="0" style="stop-color:#DDAC83"/>
			<stop  offset="1" style="stop-color:#9F755C"/>
		</linearGradient>
		<path class="st18" d="M166.8,74.3v-0.9L145.2,43h18.2l13.2,19.2h1.6L191.4,43h18.2L188,73.4v0.9l22,31.3h-18.4l-13.5-20h-1.6
			l-13.5,20h-18.4L166.8,74.3z"/>
		
			<linearGradient id="SVGID_18_" gradientUnits="userSpaceOnUse" x1="263.55" y1="701.6374" x2="263.55" y2="637.03" gradientTransform="matrix(1 0 0 1 0 -594)">
			<stop  offset="0" style="stop-color:#DDAC83"/>
			<stop  offset="1" style="stop-color:#9F755C"/>
		</linearGradient>
		<path class="st19" d="M295.1,57H272v48.5h-16.7V57H232V43h63v14H295.1z"/>
		
			<linearGradient id="SVGID_19_" gradientUnits="userSpaceOnUse" x1="309" y1="701.6374" x2="309" y2="637.03" gradientTransform="matrix(1 0 0 1 0 -594)">
			<stop  offset="0" style="stop-color:#DDAC83"/>
			<stop  offset="1" style="stop-color:#9F755C"/>
		</linearGradient>
		<path class="st20" d="M300.6,43h16.8v62.5h-16.8V43z"/>
		
			<linearGradient id="SVGID_20_" gradientUnits="userSpaceOnUse" x1="359.05" y1="701.6374" x2="359.05" y2="637.03" gradientTransform="matrix(1 0 0 1 0 -594)">
			<stop  offset="0" style="stop-color:#DDAC83"/>
			<stop  offset="1" style="stop-color:#9F755C"/>
		</linearGradient>
		<path class="st21" d="M323.4,43h21.4l13.7,41.1h1.3L373.4,43h21.4v62.5h-16.1V71.2h-1.4l-11.8,34.3h-12.9l-11.8-34.3h-1.4v34.3
			h-16.1L323.4,43L323.4,43z"/>
		
			<linearGradient id="SVGID_21_" gradientUnits="userSpaceOnUse" x1="427.75" y1="701.6374" x2="427.75" y2="637.03" gradientTransform="matrix(1 0 0 1 0 -594)">
			<stop  offset="0" style="stop-color:#DDAC83"/>
			<stop  offset="1" style="stop-color:#9F755C"/>
		</linearGradient>
		<path class="st22" d="M400.8,43h53.9v13.6h-37.1v11.8h35.7v11.7h-35.7v11.8h37.1v13.6h-53.9V43z"/>
	</g>
</g>
<image style="display:none;overflow:visible;enable-background:new    ;" width="640" height="384" xlink:href="../../../../Downloads/Image from iOS (13).jpg"  transform="matrix(0.2301 0 0 0.2301 211.3861 105.7654)">
</image>
</svg>
