<?xml version="1.0" encoding="utf-8"?>
<!-- Generator: Adobe Illustrator 25.2.1, SVG Export Plug-In . SVG Version: 6.00 Build 0)  -->
<svg version="1.1" id="Layer_1" xmlns="http://www.w3.org/2000/svg" xmlns:xlink="http://www.w3.org/1999/xlink" x="0px" y="0px"
	 viewBox="0 0 720 720" style="enable-background:new 0 0 720 720;" xml:space="preserve">
<style type="text/css">
	.st0{display:none;fill:#FBFAFA;}
	.st1{fill:#D89A80;}
	.st2{fill:#D79A80;}
	.st3{fill:#D79A81;}
	.st4{fill:#D69A81;}
	.st5{fill:#D69B82;}
	.st6{fill:#D69A82;}
	.st7{fill:#D59A82;}
	.st8{fill:#C8B4AB;}
	.st9{fill:#DFD9D7;}
	.st10{fill:#D4C9C4;}
	.st11{fill:#C7AFA5;}
	.st12{fill:#CCBBB3;}
	.st13{fill:#D5CBC7;}
	.st14{fill:#D0C4BF;}
	.st15{fill:#C4A395;}
	.st16{fill:#D2C7C2;}
	.st17{fill:#D0C4BE;}
	.st18{fill:#D0C3BD;}
	.st19{fill:#D3C9C5;}
	.st20{fill:#D0C3BE;}
	.st21{fill:#C9B7AF;}
</style>
<g>
	<path class="st0" d="M360,7.8c128.2,0,256.4,0,384.6-0.1c1.9,0,2.3,0.4,2.3,2.3c0,236.9,0,473.8,0,710.6c0,1.9-0.4,2.3-2.3,2.3
		c-256.4,0-512.8,0-769.2,0c-1.9,0-2.3-0.4-2.3-2.3c0-236.9,0-473.8,0-710.6c0-1.9,0.4-2.3,2.3-2.3C103.6,7.9,231.8,7.8,360,7.8z"/>
	<path class="st1" d="M396.5,516c-10.3,0-20.5,0-30.8,0c-3.6,0-5.5-1-6-3.1c-0.6-3,1.2-6.5,4-7.8c4.6-2,9.5-3.8,13.5-6.8
		c4-2.9,7.4-6.6,10-11c3.3-5.6,6-11.5,8.7-17.4c2.1-4.5,3.5-9.3,5.6-13.7c2.8-5.7,4.5-11.9,7.2-17.5c2.4-4.9,3.6-10.3,6.1-15.1
		c2.7-5.2,4-11,6.6-16.2c2.8-5.6,4.4-11.7,7.1-17.3c2.4-4.9,3.8-10.2,6.1-15.1c3.6-7.6,6.2-15.6,9.8-23.3c1-2.2,1.7-4.6,2.7-6.8
		c2.4-5.7,4.7-11.4,6.9-17.1c1.3-3.4,3-6.6,4.2-10c0.7-2,0.3-2.9-1.8-3.1c-1.3-0.1-2.7-0.2-4,0c-7.9,0.9-15.8,0.9-23.6,2.8
		c-7.6,1.8-14.5,4.8-20.6,9.7c-3.9,3.2-7.6,6.6-11.1,10.4c-3.9,4.2-7.7,8.6-11.7,12.8c-3.1,3.2-6.6,5.8-11.5,5.5
		c-5.4-0.3-8.2-4-6.6-9.2c1.6-5.3,4.6-10,6.6-15.1c2.4-6,5.2-11.9,7.8-17.9c1.4-3.2,2.9-6.5,4.7-9.6c3-5,7.7-7.5,13.6-7.8
		c8.4-0.4,16.6,0.6,24.9,1.4c4.1,0.4,8.2,0.5,12.3,0.5c30.9,0.1,61.7,0.2,92.6,0c9.4-0.1,18.9-0.8,28.3-1.5c4.7-0.4,9.4-1.2,14,0.2
		c3.7,1.1,4.8,3.5,4,7.3c-1.2,5.7-4.3,10.6-5.9,16.2c-2.6,8.8-6.4,17.2-9.4,25.9c-1.6,4.5-4.4,8.8-10.5,9.1c-5.3,0.3-8.8-2-9-7.3
		c-0.1-3-0.2-6-0.7-8.8c-1-5.7-1.9-11.7-6.1-16.1c-3.6-3.9-8.5-5.7-13.7-6.6c-5-0.9-10-1.5-15.1-1.6c-2.1,0-4.2-0.5-6.4-0.4
		c-4.1,0-6.2,1.3-7.6,5.2c-2.9,8.1-6.5,16-9.7,24c-2.1,5.2-3.9,10.5-6.2,15.5c-2.6,5.6-4.4,11.5-7,17.1c-2.4,5-3.8,10.4-6.2,15.3
		c-2.3,4.7-3.6,9.8-5.9,14.4c-2.6,5.3-4.2,11.1-6.8,16.4c-2.7,5.8-4.5,11.8-7.1,17.6c-4.8,10.7-8.8,21.6-13.4,32.4
		c-2.3,5.4-3.9,11-5.3,16.6c-1.2,4.9,0.7,10.7,4.1,12.4c2.4,1.2,4.7,2.5,6.8,4.4c1.5,1.4,2.1,4,1,5.6c-1.9,2.9-4.6,4.6-8.1,4.6
		C417.5,516,407,516,396.5,516z"/>
	<path class="st1" d="M270.3,298.2c9.9,0,17.8,0,25.8,0c2.6,0,5.2,0.3,7.7,1.2c1.6,0.5,2.3,1.5,2.3,3c0,1.9,0.3,3.8-1.7,5.2
		c-3.3,2.3-6.9,3.6-10.6,4.8c-3.3,1.1-5.7,3.2-8.1,5.7c-6.1,6.3-9.1,14.3-12.4,22.2c-4.1,9.5-7.9,19.2-11.8,28.8
		c-2.9,7.1-5.7,14.2-8.6,21.2c-2.2,5.4-3.9,11-6.5,16.2c-2.4,4.8-3.7,9.9-6,14.6c-2.5,5.1-4.1,10.6-6.4,15.8
		c-2.8,6-4.7,12.3-7.4,18.3c-4.5,10.3-8.9,20.5-12.5,31.1c-0.5,1.6-1.7,3.2-1.6,4.7c0.2,2.6,1.6,4.8,4,6.2c3.6,2.1,7.7,2.7,11.8,2.9
		c6.3,0.2,12.7,0.3,19-0.5c7.5-1,15-2.3,22.2-4.7c6.6-2.1,12.9-4.8,18.6-8.6c4.6-3.1,8.9-6.7,12.9-10.5c5.2-4.9,10.2-9.9,15.7-14.6
		c2.6-2.2,5.4-4.5,9.1-4.9c3.2-0.4,5.9,0.4,8.1,2.9c1.8,2,1.1,4.1,0.5,6.2c-1.5,5.6-5.4,10-8,15.1c-1.5,3-3.6,5.6-4.9,8.7
		c-2.2,5.2-5.4,9.9-8.4,14.6c-4.8,7.4-11.2,12.9-20.3,14c-4.8,0.6-9.8,0.5-14.6,0c-3-0.3-6-0.4-9-0.6c-4.2-0.3-8.4-0.6-12.6-0.7
		c-33.7-0.9-67.4-0.2-101.2-0.5c-2.9,0-5.3-1.4-5.7-3.3c-0.6-3.2,1.1-6.4,3.7-7.6c4.7-2.1,9.8-3.5,13.8-6.7c3.9-3,7.4-6.7,9.8-11.2
		c3-5.9,6.1-11.7,8.8-17.7c2.3-5,3.7-10.3,6.2-15c3.3-6.3,4.7-13.2,8.2-19.4c1.6-2.9,2.4-6.2,3.6-9.4c2.8-6.8,5.4-13.6,8.3-20.3
		c2.2-5.2,3.8-10.7,6.4-15.8c2.6-5,3.9-10.5,6.4-15.5c2.9-5.7,4.5-11.9,7.2-17.5c2.4-4.8,3.7-10.1,6.1-14.8c2.9-5.9,4.8-12,6.4-18.4
		c1.4-5.8-0.5-9.7-6-12.4c-4-1.9-5.7-6-3.6-9c1.8-2.6,4.4-3.1,7.3-3.4C252.3,297.6,262.3,298.5,270.3,298.2z"/>
	<path class="st1" d="M485.5,126c-3.4,0-6.8,0-10.2,0c-1.4,0-3,0-3.3-1.5c-0.3-1.5,0.8-2.7,2.2-3.1c3.5-1.1,5.1-3.8,6.2-7
		c2.8-9.2,4.5-18.6,5.4-28.1c0.2-2.5-1-3.8-3.2-4.5c-1.1-0.4-2.8-0.5-2.6-2.1c0.1-1.4,1.4-1.9,2.8-2.3c4.9-1.3,9.9-2.1,14.6-3.9
		c1.4-0.5,3.1-1.1,4.1,0.3c0.9,1.3,0.5,3.1-0.3,4.6c-0.1,0.3-0.5,0.6-0.5,0.8c0.2,0.9-0.9,2-0.2,2.5c1.1,0.7,1.7-0.7,2.3-1.3
		c3.7-4,8.2-6.1,13.6-7c5-0.8,9.6-0.2,13.8,2.6c1.9,1.2,2.9,3.2,4.1,5c0.5,0.8,0.7,1.2,1.7,0.2c7-6.9,15.3-9.9,25.1-7.1
		c5.3,1.5,9.5,9.2,8.4,15c-0.9,4.6-1.3,9.2-2.5,13.7c-1.1,4.2-1.9,8.3-2,12.6c0,2.3,0.7,3.9,2.5,5.2c0.4,0.3,0.8,0.6,1.2,0.9
		c0.8,0.7,1.8,1.5,1.3,2.7c-0.5,1.2-1.7,1.8-3,1.9c-1.9,0.1-3.8,0-5.7,0c-5.2,0-10.4,0-15.6,0c-1.3,0-2.8-0.1-3.2-1.3
		c-0.5-1.4,0.7-2.5,1.9-3c6.7-2.7,7.1-9,8.2-14.7c0.9-4.4,2.3-8.7,2.8-13.2c0.2-2.1,0.4-4.1,0.1-6.2c-0.7-4.4-6.1-6-10.5-5.1
		c-5.2,1-8.5,4.3-10.4,9.2c-3,7.8-4.3,15.9-4.8,24.2c-0.1,2.3,0.3,4.2,2.2,5.7c0.8,0.6,1.6,1.4,1.2,2.5c-0.4,1.2-1.5,1.9-2.7,1.9
		c-6.6,0.1-13.2,0.1-19.8,0c-0.8,0-1.9-0.4-2.1-1.4c-0.2-0.9,0.3-1.9,1.1-2.3c5.9-2.9,6.8-8.6,7.7-14.1c0.8-5.5,1.9-10.9,2.7-16.4
		c1-6.7-3.6-10.9-10.1-9.1c-6.9,1.9-10,7-11.8,13.2c-1.5,5.4-2.1,11-3.3,16.5c-0.6,2.9-0.2,4.9,1.2,7.2c0.4,0.7,1,1.2,1.7,1.7
		c1,0.6,1.9,1.5,1.5,2.8c-0.4,1.4-1.6,2.1-3,2.1C492.8,126,489.2,126,485.5,126z"/>
	<path class="st1" d="M399.2,126c-3.8,0-7.6,0-11.4,0c-1.2,0-2.4-0.3-2.7-1.6c-0.3-1.3,0.7-2.2,1.6-2.5c6.5-2.1,7.2-7.9,8.3-13.3
		c1.9-8.9,3.6-17.9,5.3-26.9c0.8-4.2,1.4-8.4,2.2-12.5c0.3-1.6,1-3.2,1.4-4.8c0.4-1.8,0-2.9-2.4-2.9c-7.6,0-13.5,2.9-17,9.8
		c-0.8,1.6-2.3,2.6-3.7,3.5c-1,0.7-2.5,0.3-3.6-0.7c-1.1-0.9-1.4-2.3-0.9-3.3c1.8-3.3,1.8-7,2.8-10.5c1.5-5.9,3.9-7.4,9.9-6
		c0.5,0.1,1,0.3,1.4,0.3c11.5,0.6,22.9,0.8,34.4,0.4c5.5-0.2,11-0.2,16.5-0.8c2.7-0.3,3.6,0.7,3.5,3.5c-0.2,4.7-1.2,9.2-2,13.8
		c-0.4,2.1-2.2,3.3-4.2,3.3c-1.7,0-3.1-1.2-3.7-3.1c-0.5-1.7-1-3.4-1.9-5c-2.1-3.7-9.3-6.5-13.1-5c-1.6,0.6-1.5,2.3-1.8,3.6
		c-0.7,3.2-0.7,6.5-1.6,9.6c-2.9,9.6-3.5,19.6-5.8,29.3c-0.9,3.6-1.5,7.2-1.9,10.9c-0.3,2.3,1.2,4.1,2.8,5.6c1,1,2.9,1.5,2.3,3.3
		c-0.6,2.1-2.4,2.2-4.2,2.1C406,125.9,402.6,126,399.2,126z"/>
	<path class="st1" d="M194.3,118c-2.3,0.5-3.1,2.6-4.6,3.7c-3.4,2.5-7.1,4.1-11.3,4.8c-3.5,0.6-6.8,0.3-10.2-0.5
		c-2.7-0.6-4.6-2.2-6.1-4.2c-2.7-3.7-3.6-8.1-2.5-12.3c1.8-7.1,2.8-14.3,4.2-21.4c0.7-3.5-0.3-5.1-3.6-6.5c-1.1-0.5-2.4-0.9-2.3-2.5
		c0.1-1.4,1.3-1.6,2.3-1.8c5.4-1.5,10.8-2.9,16.3-4.3c1.9-0.5,3.1,0.7,2.7,3.2c-0.6,3.6-1.3,7.2-1.9,10.8c-1,5.6-1.9,11.2-3,16.8
		c-0.5,2.6-1.8,4.9-1,7.7c0.9,3.2,3.3,5.7,6.5,6c4.1,0.3,7.7-0.7,11-3.6c5-4.3,6-10.3,7.3-16.1c0.8-3.6,1.6-7.3,1.6-11.1
		c0-2.4-0.8-3.9-2.9-4.8c-1.1-0.5-2.5-0.9-2.3-2.4c0.2-1.5,1.5-2.1,2.8-2.4c5.1-1.2,10.2-2.3,15.1-4c2.5-0.8,3.4,0.2,3.1,2.9
		c-0.7,5.5-2.1,10.9-3.2,16.4c-1.4,6.9-3.1,13.9-3.3,21c-0.1,3.1,0.8,4.1,3.7,5.2c0.9,0.3,2.2,0.5,2.1,1.7c-0.1,1.2-1.1,1.9-2.3,2.3
		c-5.3,1.5-10.8,2.6-16,4.4c-1.8,0.6-3-0.4-2.9-2.3C193.6,122.4,194,120.3,194.3,118z"/>
	<path class="st1" d="M266.8,126c-3.6,0-7.3,0-10.9,0c-1.2,0-2.3-0.2-2.6-1.3c-0.4-1.1,0.4-2,1.3-2.7c2.9-2.2,3-2.9,1.6-6.2
		c-1.4-3.5-3.8-6.4-5.6-9.7c-0.5-1-1.1-1.1-1.9-0.2c-2.9,3.3-6.1,6.3-8.4,10.1c-1.2,2-0.8,4,1.2,5.6c0.9,0.7,2.2,1.2,1.6,2.6
		c-0.6,1.3-1.8,1.8-3.3,1.8c-1.5,0-3,0-4.5,0c-4.3,0-8.6,0-12.9,0c-0.9,0-1.8-0.1-2.6-0.5c-1.7-0.6-1.4-1.5-0.4-2.5
		c1.7-1.7,3.9-2.7,5.8-4.1c3.7-2.6,7.2-5.5,10.4-8.8c3.2-3.3,6.6-6.4,9.8-9.7c0.9-0.9,0.9-1.3,0.2-2.3c-2.8-3.9-4.9-8.2-7.6-12.2
		c-2.1-3-4.2-5.8-7.6-7.3c-1.3-0.6-2.4-1.4-2-3c0.4-1.6,1.8-1.7,3.1-1.7c7.5,0,15,0,22.6,0c1.1,0,2,0.3,2.4,1.3
		c0.5,1.1-0.2,1.9-1,2.5c-4,2.9-2.7,4.1-1.3,7.4c1.1,2.7,2.7,5.2,4.1,7.8c0.9,1.6,2,2.4,3.3,0.5c2.3-3.1,5.4-5.4,7.4-8.8
		c1.8-3,1.6-4.5-1.1-6.6c-0.9-0.6-1.6-1.4-1-2.5c0.6-1.3,1.8-1.8,3.3-1.8c4.1,0,8.3,0,12.4,0c1.8,0,3.6,0.1,5.5,0
		c1.1,0,2,0.3,2.4,1.3c0.5,1.1-0.3,1.8-1,2.6c-1.9,1.9-4.8,2.5-6.6,4.5c-2.8,3.1-6.5,5.2-9.4,8.2c-2.6,2.7-5,5.9-8.2,8.1
		c-1.7,1.1-2,2.7-0.7,4.2c2.4,2.7,3.7,6.2,5.8,9c2.6,3.5,4.8,7.6,9.3,9.4c1.2,0.5,2.4,1.5,2.1,2.9c-0.3,1.6-1.8,1.9-3.3,1.9
		C274.4,125.9,270.6,126,266.8,126z"/>
	<path class="st1" d="M115.9,55c3.5,0,6.9,0,10.4,0c1.3,0,2.7,0.2,2.9,1.6c0.2,1.4-1,2-2.2,2.4c-4.4,1.5-6.1,5.3-6.9,9.3
		c-1.9,9.8-3,19.7-5.2,29.3c-1.2,5-1.9,10.1-3.1,15.2c-1.2,4.7,0.5,6.8,5.3,6.7c9.1-0.2,17.1-2.8,23-10.5c1.4-1.8,3.3-4,6.2-3.8
		c2.3,0.1,3.6,1.7,2.8,3.8c-2,5-3.9,10-6.4,14.7c-1.5,2.7-4.8,3.7-7.8,3.3c-14-1.9-28-0.4-42-0.9c-1,0-1.9,0.1-2.9-0.4
		c-0.8-0.4-2.1-0.2-2.1-1.3c0-0.9,0.9-1.7,1.7-2.2c1.1-0.8,2.3-1.5,3.5-2.2c4.1-2.5,4.2-7,5-10.9c1.2-5.9,1.5-12,3.2-17.8
		c2.3-7.9,3-16.1,4.7-24.1c0.7-3.2,0.7-6.5-3.4-8.3c-2-0.9-1.9-1.8,0-3c0.9-0.6,1.9-0.8,3-0.8C109.1,55,112.5,55,115.9,55z"/>
	<path class="st1" d="M449.2,126c-3.5,0-6.9,0-10.4,0c-1.2,0-2.1-0.3-2.6-1.5c-0.4-1.1,0.4-1.9,1.2-2.5c1-0.8,2.1-1.6,3.2-2.2
		c4.4-2.6,4.5-7.3,5.4-11.5c1-4.8,1.5-9.8,2.7-14.6c0.3-1.3,0.8-2.7,1.1-4.1c1-3.9,0.2-5.7-3.1-7.7c-1.1-0.6-2.8-0.9-2.5-2.6
		c0.3-1.5,1.9-2.1,3.2-2.3c5.1-0.9,9.9-2.5,14.9-3.8c2.5-0.6,3.3-0.1,3,2.5c-0.5,4.4-1.2,8.7-2.2,13c-1.7,8.2-3.6,16.4-4.7,24.8
		c-0.5,3.6,0.9,6.5,4,8.1c0.8,0.4,1.3,1.2,1.3,1.9c0,0.8-0.4,1.7-1.5,2c-1,0.2-1.9,0.5-2.9,0.5C456,125.9,452.6,126,449.2,126z"/>
	<path class="st1" d="M470.9,58.8c0.3,1.2-0.5,2.6-1.5,3.2c-2.6,1.7-4.6,4.4-7.9,5.1c-0.5,0.1-1.1,0.3-1.7,0.2
		c-1.8-0.2-6.3-4.4-6.7-6.4c-0.5-2.7,0.8-4.4,2.9-5.9c2.2-1.5,3.9-3.7,6.8-4.1c1.2-0.2,2.2-0.1,3.1,0.8
		C468,53.8,470.9,55.1,470.9,58.8z"/>
	<path class="st2" d="M590.4,524.6c1.1,0.1,2.4,0.7,3.6,1.4c4.1,2.3,8.1,4.6,12.2,7c1.5,0.9,1.8,2.3,0.9,3.6c-0.9,1.3-2.1,3.3-4,2.3
		c-5.4-2.8-10.8-5.6-15.8-9.1c-0.6-0.4-1.5-0.9-0.8-2C587.3,526.3,587.9,524.6,590.4,524.6z"/>
	<path class="st3" d="M633.5,408.7c-2.5,0-5,0-7.4,0c-2.5-0.1-4.2-1.5-4.2-3.3c0-1.8,1.7-3,4.3-3c4.8,0,9.6,0,14.4,0
		c2.6,0,4,1.1,4,3.3c0,2.1-1.3,3.1-4.1,3.2C638.1,408.8,635.8,408.8,633.5,408.7C633.5,408.8,633.5,408.7,633.5,408.7z"/>
	<path class="st2" d="M130.3,285.9c-2.2-0.2-3.7-0.7-5.1-1.5c-3.6-2.1-7.1-4.1-10.7-6.1c-1.7-0.9-1.7-2.4-1.1-3.9
		c0.6-1.5,3.3-2.6,4.8-1.8c2.2,1.1,4.4,2.3,6.5,3.6c2.4,1.5,5.2,2.2,7.3,4.2c1.1,1,1.5,2.2,0.9,3.5
		C132.2,285.2,131.2,286,130.3,285.9z"/>
	<path class="st2" d="M590.1,286.1c-2.3-0.1-3.1-1.8-3.8-3.1c-0.5-1,0.8-1.8,1.7-2.4c4.7-2.6,9.5-5.3,14.3-7.9
		c1.9-1,4.3,0.1,4.9,2.1c0.4,1.1,0.2,2.1-0.9,2.8c-4.1,2.4-8.2,4.9-12.4,7.2C592.6,285.5,591.2,285.8,590.1,286.1z"/>
	<path class="st2" d="M220.3,177.3c0.7,0,1.4,0.5,2,1.3c2.6,4.1,5.2,8.2,7.9,12.2c1.1,1.7,1.4,3.4-0.4,4.8c-1.3,1-3.9,0.5-5-1.1
		c-2.7-3.9-5.5-7.8-8-11.9C214.9,179.9,216.7,177.2,220.3,177.3z"/>
	<path class="st2" d="M500.4,633.6c-1.2,0.1-1.8-0.7-2.4-1.5c-2.6-4.1-5.3-8.3-7.9-12.5c-1.1-1.7-1.4-3.2,0.6-4.4
		c2.1-1.3,3.8-1.2,5.1,0.9c1.3,1.9,2.5,3.9,3.5,6c1.2,2.4,3.3,4.1,4.4,6.5C504.8,631.2,503.2,633.7,500.4,633.6z"/>
	<path class="st2" d="M133.5,527.9c0.2,1.2-0.6,2.1-1.6,2.7c-4.4,2.7-9,5.1-13.6,7.4c-2.4,1.2-5-0.4-5.1-3c-0.1-0.8,0.2-1.5,0.9-1.9
		c4.9-2.7,9.9-5.5,14.9-8.1C131.2,523.9,133.4,525.4,133.5,527.9z"/>
	<path class="st2" d="M492.9,196c-1.2-0.2-2.4-0.1-3-1.4c-0.6-1.2-0.6-2.2,0.2-3.4c2.8-4.2,5.5-8.6,8.3-12.8c1-1.6,2.5-1.6,3.9-0.7
		c1.4,0.9,3.1,1.9,1.9,3.9c-2.8,4.5-5.8,9-8.8,13.4C494.8,195.7,493.9,196,492.9,196z"/>
	<path class="st2" d="M75.9,403.9c1.1-1.2,2.4-1.6,4-1.5c4.8,0.1,9.6,0.1,14.4,0c2.2,0,3.6,0.7,3.8,2.9c0.2,1.9-1.1,3-3.6,3.1
		c-5.1,0.1-10.2,0.1-15.4,0.2c-1.6,0-2.8-0.4-3.2-2.1C75.3,405.5,75.3,404.7,75.9,403.9z"/>
	<path class="st2" d="M219.8,633.1c-2.8,0-4.4-2-2.9-4.3c2.8-4.4,5.6-8.9,8.3-13.3c0.8-1.2,2.2-1.5,3.7-0.6c1.7,1.1,2.5,2.5,1.5,4.4
		c-1.2,2.4-2.5,4.8-4.2,7c-1.3,1.6-2.4,3.3-3.5,5C222.1,632.3,221.3,633.3,219.8,633.1z"/>
	<path class="st3" d="M356.8,153c0-2.3,0-4.6,0-6.9c0-2,1.9-3.8,3.9-3.5c1.8,0.3,2.5,1.8,2.5,3.5c0,4.5,0,9.1,0,13.6
		c0,2.1-1.5,3.9-3,3.9c-1.4-0.1-3.5-2.4-3.5-4.1C356.7,157.3,356.7,155.2,356.8,153C356.7,153,356.8,153,356.8,153z"/>
	<path class="st1" d="M362.8,657.9c0,2.4,0,4.8,0,7.2c0,1.6-0.6,2.8-2.4,2.8c-1.7,0-2.6-1-2.7-2.6c-0.2-2.4-0.6-5-0.5-7.2
		c0.1-2.8,0.2-5.7,0.5-8.5c0.1-1.4,1.2-2,2.4-2c1.5,0,2.5,0.9,2.6,2.4C362.9,652.6,362.8,655.3,362.8,657.9
		C362.8,657.9,362.8,657.9,362.8,657.9z"/>
	<path class="st4" d="M625.3,485.3c-0.7,1.2-1.8,1.1-2.8,0.8c-3.2-0.9-6.5-1.9-9.7-2.8c-1.1-0.3-1.8-1-1.6-2.1c0.2-1.1,1-1.6,2-1.4
		c4.1,1,8.4,1.6,12,3.9C625.7,484.2,625.7,484.8,625.3,485.3z"/>
	<path class="st4" d="M566,578.5c-0.7,0.1-1.3-0.3-1.8-0.7c-2.3-1.9-4.5-3.8-6.8-5.6c-1.1-0.9-1.7-2-0.9-3.2c0.9-1.3,1.9-0.5,3,0.1
		c2.9,1.8,5,4.5,7.8,6.3c0.6,0.4,1,1.1,0.7,2C567.6,578.2,566.9,578.6,566,578.5z"/>
	<path class="st4" d="M613.1,511.1c-0.2,0-0.6,0-1-0.1c-3-1.2-5.9-2.5-8.9-3.7c-1.1-0.5-1.8-1.3-1.3-2.5c0.5-1.3,1.6-1.2,2.7-0.7
		c3,1.2,6.1,2.4,9.2,3.5c1.1,0.4,1.7,1.1,1.5,2.2C615.2,510.9,614.4,511.1,613.1,511.1z"/>
	<path class="st4" d="M546.9,596.9c-1,1.1-2,1.2-2.9,0c-1.8-2.4-4.2-4.2-6.1-6.4c-0.8-1-2.1-2-0.9-3.4c1.4-1.6,2.7-0.3,3.6,0.6
		c2.3,2.3,4.3,4.8,6.4,7.2C547.4,595.6,547.4,596.3,546.9,596.9z"/>
	<path class="st5" d="M390.5,653.5c0.1,1.8,0.3,3.6,0.4,5.4c0.1,1.7-1.2,2.4-2.5,2.4c-1.4,0-1.9-1.1-1.9-2.4c0.2-3-1-6-0.1-9
		c0.2-0.8,0.5-1.5,1.3-1.6c0.9-0.2,1.6,0.3,1.9,1.2c0.4,0.5,0.4,1.1,0.4,1.8C390.1,652,389.8,652.8,390.5,653.5z"/>
	<path class="st5" d="M633,433.6c-2.2-0.4-4.8-0.4-7.3-0.5c-1.2-0.1-2.7-0.3-2.7-2c0.1-1.7,1.6-1.9,3-1.8c2.5,0.1,5.1,0.3,7.6,0.5
		c1.4,0.1,3.4,0.1,3.2,2.2C636.6,434.1,634.7,433.5,633,433.6z"/>
	<path class="st4" d="M440.5,640.3c0-1,0.4-1.7,1.3-1.9c1-0.3,2,0,2.3,0.9c1.2,3.1,2.4,6.3,3.4,9.5c0.2,0.8-0.2,1.5-1,1.7
		c-0.8,0.2-1.7,0.2-2-0.5C443.1,646.8,441.2,643.8,440.5,640.3z"/>
	<path class="st4" d="M468.2,628.7c1,0,1.5,0.5,1.9,1.3c1.3,2.6,2.5,5.2,3.7,7.8c0.5,1.1,0.6,2.1-0.7,2.7c-1.1,0.5-1.9-0.1-2.5-1
		c-1.5-2.7-3-5.3-4.3-8C465.6,629.8,466.5,628.6,468.2,628.7z"/>
	<path class="st4" d="M515,603.8c1-1.4,2.1-1.2,3.1-0.1c1.9,2.1,3.8,4.3,5.7,6.4c0.8,0.9,1.5,1.9,0.5,3.1c-1.2,1.3-2.3,0.4-3.2-0.4
		c-2.4-2.2-4.2-4.8-6-7.4C514.7,604.9,514.7,604.3,515,603.8z"/>
	<path class="st3" d="M619.8,455.5c2.1-1.4,4.2-0.1,6.2,0c1.7,0.1,3.4,0.4,5.1,0.7c1.2,0.2,2.4,0.5,2.1,2.1
		c-0.3,1.5-1.7,1.5-2.8,1.4c-2.8-0.3-5.5-0.8-8.3-1.2c-0.9-0.1-1.8-0.3-2.4-1C619.3,456.8,619.2,456.1,619.8,455.5z"/>
	<path class="st4" d="M575.8,548.3c1,0.1,1.6,0.8,2.4,1.2c2.3,1.5,4.6,2.9,6.6,4.7c0.8,0.8,1.1,1.7,0.4,2.6
		c-0.7,0.9-1.6,0.8-2.4,0.2c-2.7-1.8-5.4-3.4-7.9-5.5c-0.7-0.6-1-1.3-0.6-2.2C574.6,548.8,575.1,548.4,575.8,548.3z"/>
	<path class="st3" d="M418.9,653.8c0,1.6,0.1,3-1.5,3.1c-1.4,0.1-2.3-0.7-2.5-2.2c-0.4-2.4-0.8-4.9-1.2-7.3
		c-0.2-1.2,0.1-2.2,1.5-2.4c1.4-0.2,2.3,0.3,2.6,1.7C418.2,649.2,418.5,651.7,418.9,653.8z"/>
	<path class="st4" d="M164.1,570c-0.4,1.4-1.7,2.3-2.8,3.1c-2,1.4-3.7,3-5.5,4.5c-1,0.9-2.3,1.4-3.2,0.2c-1-1.3,0.1-2.1,1.2-2.9
		c2.6-1.9,4.7-4.5,7.6-6.2C162.8,568,164.1,568.6,164.1,570z"/>
	<path class="st4" d="M334,651.9c-0.2,2.5-0.4,4.8-0.6,7c-0.1,1.3-0.8,2.2-2.3,2c-1.4-0.2-1.7-1.2-1.6-2.4c0.2-2.6,0.6-5.2,0.8-7.9
		c0.1-1.5,0.9-2.4,2.1-2.5c1.6,0,1.5,1.4,1.5,2.6C334,651.3,334,651.7,334,651.9z"/>
	<path class="st6" d="M95.2,324.9c0.6-0.8,1.5-0.7,2.3-0.4c3.2,1.4,6.7,2.1,9.8,3.8c0.7,0.4,1.9,0.6,1.3,1.9c-0.4,0.9-1.5,1.4-2.3,1
		c-3.7-1.6-7.9-2.1-11.2-4.8C94.8,326,94.8,325.5,95.2,324.9z"/>
	<path class="st4" d="M246.1,638.5c1.4-2.8,2.7-5.6,4.1-8.4c0.6-1.2,1.5-1.9,2.8-1.2c1.4,0.7,1.2,1.9,0.5,3
		c-1.8,2.7-3.2,5.5-4.8,8.3c-0.6,1-1.5,1.5-2.6,0.5C245.6,640,245.6,639.2,246.1,638.5z"/>
	<path class="st6" d="M93.2,429.6c1.2,0.3,3.5-0.9,3.8,1.3c0.3,2.3-2.2,1.8-3.5,2c-2.5,0.4-5.1,0.5-7.6,0.7c-1.1,0.1-2.3,0-2.5-1.4
		c-0.2-1.5,1-1.9,2.3-2C88.1,430,90.5,429.8,93.2,429.6z"/>
	<path class="st4" d="M108.2,511c-1.5,0.1-2.2,0-2.5-0.9c-0.3-0.9,0-1.6,0.9-2.1c3.1-1.5,6.2-2.9,9.3-4.3c0.8-0.4,1.6-0.1,2.2,0.6
		c0.5,0.7,0.3,1.4-0.3,1.7C114.7,508.4,111,509.5,108.2,511z"/>
	<path class="st4" d="M183.5,588.3c-0.1,0.9-0.7,1.6-1.2,2.2c-1.9,2-3.9,3.9-5.9,6c-1.1,1.1-2.3,1.2-3.2,0.2c-1.1-1.2,0.2-1.8,1-2.5
		c1.6-1.7,3.1-3.4,4.7-5.1c0.7-0.8,1.6-1.5,2.6-1.8C182.5,586.7,183.4,587,183.5,588.3z"/>
	<path class="st4" d="M246.8,169.4c1.1,0,1.6,0.8,2,1.6c1.1,2.7,2.4,5.4,4.1,7.8c0.6,0.9,1.4,2.2,0,3s-2.2-0.3-2.9-1.5
		c-1.5-2.8-2.7-5.8-4.7-8.4C244.4,170.9,245.4,169.5,246.8,169.4z"/>
	<path class="st6" d="M204.9,604.9c-0.1,0.2-0.2,0.7-0.5,1.1c-1.8,2.4-3.4,5-5.6,7.1c-0.8,0.7-1.6,1.3-2.6,0.5
		c-0.8-0.7-0.6-1.5-0.1-2.4c1.7-2.7,3.9-5,6-7.4c0.5-0.6,1.1-1,1.9-0.5C204.7,603.5,205,604,204.9,604.9z"/>
	<path class="st6" d="M301.2,654.6c0.7-2.4,1.4-5.3,2.2-8.1c0.3-1.1,1.2-1.6,2.3-1.2c1.1,0.4,1.4,1.2,1.1,2.4
		c-0.6,2.2-1.2,4.5-1.7,6.7c-0.2,0.8-0.8,1.2-1.2,1.8c-0.4,0.7-1.1,1-1.9,0.7C301.3,656.6,301.1,655.8,301.2,654.6z"/>
	<path class="st4" d="M135,555.2c2.6-2.5,5.8-4.3,8.7-6.5c0.7-0.5,1.5-0.7,2.2,0c0.7,0.7,0.7,1.6,0,2.2c-2.8,2.8-6.2,4.6-9.4,6.7
		c-0.5,0.3-1.1,0.1-1.6-0.4C134.4,556.6,134.4,555.9,135,555.2z"/>
	<path class="st5" d="M277.9,638.5c1.5,0.1,2.2,1,1.7,2.3c-1.1,3.1-2.5,6.2-3.8,9.2c-0.3,0.7-1,1.1-1.8,0.7c-0.7-0.4-1.2-1-1-1.8
		c1-3.2,2.1-6.4,3.3-9.5C276.5,638.8,277.2,638.5,277.9,638.5z"/>
	<path class="st6" d="M97.8,486.3c-1.4,0.1-2.1-0.1-2.4-1c-0.3-0.9,0.2-1.5,0.9-1.8c3.3-1.2,6.6-2.5,10-3.5c0.9-0.3,1.8,0.4,2.2,1.2
		c0.5,0.9-0.5,1.3-1.1,1.6C104.2,484.6,100.6,485,97.8,486.3z"/>
	<path class="st5" d="M87.2,377.6c2.4,0.1,4.9,0.3,7.4,0.5c1.1,0.1,2.1,0.5,1.9,1.7c-0.1,1.1-1.1,1.7-2.2,1.6
		c-2.8-0.4-5.6-0.2-8.3-0.5c-1.1-0.1-2.6-0.2-2.6-1.7c0.1-1.6,1.5-1.7,2.8-1.6C86.6,377.6,86.9,377.6,87.2,377.6
		C87.2,377.6,87.2,377.6,87.2,377.6z"/>
	<path class="st6" d="M174.4,213.8c0.6-0.1,1.1,0.2,1.6,0.6c2.4,2.4,4.8,4.8,7.1,7.2c0.6,0.6,1.4,1.4,0.5,2.4c-1,1-1.7,0.2-2.5-0.4
		c-3.1-2-4.8-5.4-7.7-7.6c-0.4-0.3-0.7-0.9-0.4-1.6C173.3,213.8,173.9,213.9,174.4,213.8z"/>
	<path class="st6" d="M333.9,159c0.1,1.7,0,2.9-1.2,3c-1.2,0.1-2.1-0.8-2.2-2.2c-0.3-2.5-0.6-5.1-0.9-7.6c-0.1-1.1-0.1-2.3,1.4-2.4
		c1.4-0.1,1.8,0.8,2,2C333.3,154.4,333.6,157,333.9,159z"/>
	<path class="st5" d="M612.7,299.8c1.6-0.1,2.2,0.2,2.4,1c0.2,0.8-0.4,1.3-0.9,1.6c-3.4,1.5-6.8,3-10.2,4.4
		c-0.7,0.3-1.3,0.1-1.7-0.5c-0.5-0.7-0.2-1.4,0.3-1.7C606.2,302.8,609.8,301.2,612.7,299.8z"/>
	<path class="st5" d="M613.3,330.8c-0.9-0.1-1.7-0.4-1.8-1.2c-0.1-0.8,0.4-1.3,1.2-1.6c3.3-1,6.6-2.1,9.9-3.2
		c0.9-0.3,1.7-0.3,2.1,0.6c0.3,0.7,0.2,1.4-0.5,1.7C620.6,328.7,616.9,329.7,613.3,330.8z"/>
	<path class="st6" d="M107.7,299.7c0.3,0.1,0.9,0.2,1.5,0.5c2.7,1.2,5.4,2.3,8.1,3.6c0.8,0.4,1.6,1.1,1,2.1
		c-0.5,0.9-1.3,0.8-2.2,0.4c-3-1.2-6.1-2.5-9.1-3.7c-0.9-0.4-1.6-0.9-1.4-2C105.8,299.6,106.6,299.6,107.7,299.7z"/>
	<path class="st6" d="M567.6,234.1c-0.2,0.3-0.4,0.7-0.7,0.9c-2.6,2.2-5.3,4.4-8,6.6c-0.7,0.6-1.6,1.1-2.4,0.1s-0.1-1.7,0.6-2.3
		c2.4-2.1,4.9-4.2,7.3-6.3c0.7-0.6,1.5-0.6,2.3-0.3C567.3,233,567.5,233.5,567.6,234.1z"/>
	<path class="st4" d="M279.7,170.8c-0.1,0.9-0.2,1.6-1,1.7c-0.8,0.2-1.8,0.2-2.2-0.7c-1.4-3.2-2.7-6.4-4-9.6c-0.2-0.6,0-1.2,0.6-1.5
		c0.6-0.3,1.5-0.4,1.8,0.3C276.6,164.4,278.1,167.7,279.7,170.8z"/>
	<path class="st7" d="M625.8,381.5c-1.2,0-2.4,0.1-2.5-1.3c-0.1-1.3,1-1.5,2-1.7c3.1-0.5,6.2-0.9,9.3-1.4c1.1-0.2,2.2-0.1,2.4,1.1
		c0.2,1.1-0.7,1.6-1.7,1.8C632.1,380.5,628.9,381,625.8,381.5z"/>
	<path class="st6" d="M474,172.2c-1.5,2.8-2.7,6.2-4.8,9.2c-0.5,0.7-1.4,0.8-2.2,0.3c-0.7-0.5-0.8-1.3-0.4-2c1.6-3,3.3-6,5-9
		c0.4-0.6,1.1-0.8,1.8-0.5C474,170.5,474.2,171.1,474,172.2z"/>
	<path class="st6" d="M154.3,232.8c0.3,0.1,0.8,0.2,1.2,0.5c2.5,2,5,4.1,7.4,6.2c0.8,0.7,1.4,1.6,0.6,2.6c-0.9,0.9-1.6,0.1-2.4-0.4
		c-2.9-1.7-5-4.5-7.8-6.4c-0.5-0.3-0.6-1-0.4-1.6C153,233,153.5,232.8,154.3,232.8z"/>
	<path class="st6" d="M524.4,198.6c-0.2,0.4-0.6,1.1-1,1.6c-1.8,2.2-3.7,4.4-5.5,6.6c-0.5,0.6-1.2,1.3-2.1,0.6
		c-1-0.7-0.7-1.6-0.1-2.4c2-2.6,3.8-5.4,6.2-7.6c0.5-0.5,1.1-0.8,1.8-0.5C524.2,197.2,524.5,197.7,524.4,198.6z"/>
	<path class="st4" d="M205.2,206.2c0,0.7-0.3,1.1-0.8,1.4c-0.6,0.4-1.2,0.1-1.6-0.3c-2.2-2.7-4.9-5-6.8-8.1c-0.4-0.7-0.5-1.4,0.2-2
		c0.6-0.5,1.3-0.4,1.8,0.1c2.6,2.5,4.9,5.2,6.9,8.2C205.1,205.7,205.1,206,205.2,206.2z"/>
	<path class="st6" d="M538.2,224.1c-1.4-0.3-1.7-1.3-1-2.2c2.1-3,5-5.2,7.4-7.8c0.4-0.5,1.2-0.4,1.8,0.1c0.6,0.5,0.5,1.2,0.1,1.8
		c-2.3,2.7-4.4,5.5-7.2,7.7C538.9,223.8,538.5,223.9,538.2,224.1z"/>
	<path class="st6" d="M146.2,261.1c-0.4,1.3-1.2,1.7-2.4,0.9c-2.7-2-5.4-4-8.1-6c-0.7-0.5-1.1-1.3-0.5-2.1c0.5-0.7,1.4-0.6,2-0.1
		c2.6,2.1,5.7,3.6,8.2,5.9C145.8,260,146.2,260.4,146.2,261.1z"/>
	<path class="st6" d="M441.1,170.1c1.6-2.4,2.4-5.8,3.8-8.9c0.3-0.6,0.9-0.9,1.7-0.6c0.7,0.3,1.1,0.9,0.9,1.6
		c-1.1,3.2-2.2,6.4-3.4,9.5c-0.4,0.9-1.3,1-2.1,0.8C441,172.3,440.8,171.6,441.1,170.1z"/>
	<path class="st6" d="M584.1,253.5c0.7,0,1.1,0.3,1.4,0.9c0.3,0.7-0.1,1.3-0.7,1.7c-1.6,1.2-3.1,2.6-4.9,3.6
		c-1.2,0.6-2.1,1.5-3.2,2.3c-0.7,0.5-1.4,0.5-2-0.2c-0.6-0.6-0.5-1.2,0-1.7c2.6-2.6,5.9-4.3,8.9-6.5
		C583.7,253.5,583.9,253.5,584.1,253.5z"/>
	<path class="st7" d="M389.6,157.3c0,1.1,0,2.1-0.1,3.2c-0.1,0.8-0.6,1.5-1.4,1.5c-0.9,0-1.4-0.7-1.4-1.5c0.2-3.3,0.4-6.6,0.7-9.8
		c0.1-0.9,0.7-1.6,1.7-1.3c1,0.2,1.6,0.8,1.5,1.9c-0.1,1.1-0.1,2.3-0.1,3.5C389.8,155.4,390.3,156.6,389.6,157.3z"/>
	<path class="st5" d="M97.8,455.3c1,0,1.9,0.1,2.1,1.3c0.2,1.1-0.6,1.6-1.6,1.8c-2.6,0.5-5.2,1-7.7,1.4c-1.1,0.2-2.4-0.1-2.7-1.2
		c-0.3-1.2,1.1-1.8,2.1-2C92.7,456.1,95.3,455.8,97.8,455.3z"/>
	<path class="st6" d="M413.9,163.3c0.7-3,1.5-6,2.9-8.8c0.3-0.6,0.8-0.8,1.4-0.7c0.8,0.2,1.2,0.8,1.1,1.4c-0.6,3-1.1,6.1-2.3,9
		c-0.4,0.9-1.2,1.1-2.1,0.8C414,164.8,413.8,164.1,413.9,163.3z"/>
	<path class="st6" d="M88.8,351.7c2.6-1.4,5.1,0.3,7.6,0.2c0.9,0,1.8,0.2,2.6,0.5c0.7,0.3,1.2,0.9,1.1,1.7c-0.1,0.7-0.7,1.4-1.3,1.3
		c-3.4-0.5-7-0.2-10.1-2.1C88.4,352.8,88.3,352.3,88.8,351.7z"/>
	<path class="st6" d="M305.1,157.8c0.4,1.9,0.8,3.7,1.1,5.6c0.1,0.9,0.1,1.9-1,2.2c-1.2,0.3-1.8-0.4-2.1-1.5c-0.5-2.3-1.1-4.6-1.6-7
		c-0.2-1.1-0.6-2.3,0.8-2.7c1.5-0.4,1.8,0.8,2,1.9C304.6,156.6,304.7,157.3,305.1,157.8z"/>
	<path class="st5" d="M619.7,354.1c1.6-1.7,3.9-1.5,5.9-2.3c1.2-0.5,2.5-0.7,3.8-1c0.8-0.2,1.5,0,1.8,0.9c0.2,0.6,0.1,1.3-0.5,1.5
		c-3.5,1.1-6.9,2.9-10.8,2.5C619.4,355.2,619.4,354.7,619.7,354.1z"/>
	<path class="st8" d="M389.6,157.3c0.1-0.9-0.6-2.1,0.9-2.6C390.4,155.6,391,156.8,389.6,157.3z"/>
	<path class="st9" d="M75.9,403.9c0,0.8,0,1.7-0.1,2.5C74.4,405.5,74.3,404.6,75.9,403.9z"/>
	<path class="st10" d="M546.9,596.9c0-0.7,0-1.4,0-2C548.3,595.6,548.3,596.3,546.9,596.9z"/>
	<path class="st11" d="M246.1,638.5c0,0.7,0,1.4,0,2.1C244.6,639.9,244.7,639.2,246.1,638.5z"/>
	<path class="st12" d="M135,555.2c0,0.7,0,1.3,0,2c-0.5-0.1-0.9-0.2-1-0.9C133.9,555.6,134.3,555.3,135,555.2z"/>
	<path class="st13" d="M619.8,455.5c0,0.6,0,1.3,0,2c-0.7-0.1-1-0.4-1-1.1C618.9,455.7,619.3,455.6,619.8,455.5z"/>
	<path class="st14" d="M389.5,651.5c0-0.7,0-1.4,0.1-2c1.2,0.3,0.9,1.3,0.8,2.1C390.1,651.8,389.8,651.8,389.5,651.5z"/>
	<path class="st15" d="M389.5,651.5c0.3,0,0.6,0,0.9,0.1c0,0.7,0,1.3,0.1,2C389.2,653.3,389.6,652.3,389.5,651.5z"/>
	<path class="st16" d="M95.2,324.9c0,0.5,0,1-0.1,1.6c-0.4-0.1-0.8-0.2-0.9-0.7C94.2,325.1,94.7,325,95.2,324.9z"/>
	<path class="st17" d="M305.1,157.8c-1-0.2-1-0.9-0.9-1.6C305.2,156.4,305.2,157,305.1,157.8z"/>
	<path class="st18" d="M619.7,354.1c0,0.5,0.1,1,0.2,1.5c-0.5,0-1-0.1-1-0.8C618.9,354.3,619.3,354.2,619.7,354.1z"/>
	<path class="st19" d="M515,603.8c0,0.5,0,1.1,0,1.6c-0.5-0.1-1-0.3-0.9-0.9C514.2,604,514.7,603.9,515,603.8z"/>
	<path class="st20" d="M625.3,485.3c0-0.5,0-1.1-0.1-1.6c0.5,0.1,1,0.2,0.9,0.9C626.1,485.1,625.7,485.2,625.3,485.3z"/>
	<path class="st21" d="M88.8,351.7c0,0.5-0.1,1.1-0.1,1.6c-0.5-0.1-0.9-0.3-0.9-0.9C87.9,351.9,88.3,351.8,88.8,351.7z"/>
	<path class="st1" d="M341.4,79.7c-0.8-1.2-1.9-2.4-3.2-3.1c-7.7-4.4-15.8-4.6-24-1.5c-5.9,2.2-10.6,6-15,10.7
		c-4.2,4.6-6,10.1-7.9,15.6c-1.6,4.7-0.8,9.5,1.4,13.9c1.4,2.8,2.8,5.5,5.6,7.3c5.9,3.7,12.2,4.9,19.2,4c7.9-1,14.8-3.8,20.4-9.4
		c0.9-0.8,2-1.8,1-3.2c-0.9-1.3-2.2-1.1-3.5-0.4c-4,2.1-8.2,3.7-12.7,4.3c-5.1,0.6-10.1,0.2-13.8-3.8c-3-3.2-3.8-7.3-3.5-11.8
		c0.2-3.1,1.5-3.2,3.9-3.1c4.2,0.1,8.4,0,12.6,0c4.7,0,9.4,0,14.1,0c4.5-0.1,8.1-2.8,8.7-6.6C345.6,87.7,343.9,83.5,341.4,79.7z
		 M332,88.9c-0.4,2-3.6,4.2-6.5,4.3c-2.8,0-5.6,0-8.4,0c-2.7,0-5.4-0.1-8.2,0c-1.6,0-2.1-0.5-1.5-2c2.8-6.2,6.9-11.1,14-12.2
		C326.8,78.1,333.4,81.7,332,88.9z"/>
	<path class="st1" d="M627.4,76.3c-7.3-4.5-15.1-4-22.8-1.4c-6.2,2.1-11.3,6-15.5,11c-6.3,7.5-9.1,15.9-7.4,25.6
		c1,5.8,4.1,10.1,9.4,12.6c5.2,2.4,10.6,3.3,16.5,2.4c5.6-0.9,11.1-2.1,15.7-5.6c1.8-1.3,3.9-2.3,5.1-4.3c0.5-0.8,1.4-1.6,0.6-2.7
		c-0.7-1-1.7-1.2-2.8-0.6c-1.2,0.6-2.4,1.1-3.6,1.6c-4.4,1.8-8.9,3.3-13.8,3.1c-5.9-0.4-11.6-3.1-13-9.8c-0.5-2.3-0.9-4.6-0.4-7
		c0.3-1.6,0.8-2.1,2.3-2.1c4.7,0.1,9.4,0,14.1,0c4.7,0,9.4,0.1,14.1,0c4.9-0.1,8.1-2.5,8.6-6.6C635.5,85.8,633.5,80,627.4,76.3z
		 M621.8,88.9c-0.4,2.5-3,4.2-6.6,4.3c-2.7,0-5.4,0-8.2,0c-2.8,0-5.6-0.1-8.4,0c-1.6,0-2-0.7-1.3-2c3-6.1,6.9-11,14.1-12.4
		C617.7,77.6,622.8,82.5,621.8,88.9z"/>
</g>
</svg>
